# xmcd CD database file
#
# Track frame offsets:
#	182
#	12787
#	25637
#	39767
#	55705
#	68147
#	80050
#	98665
#	114955
#	129487
#	146132
#
# Disc length: 1993 seconds
#
# Revision: 3
# Processed by: cddbd v1.5.2PL0 Copyright (c) Steve Scherf et al.
# Submitted via: CDex 1.79
#
DISCID=8107c70b
DTITLE=Jim Witter - Jim Witter
DYEAR=1993
DGENRE=Country
TTITLE0=Distant Drum
TTITLE1=Everything And More
TTITLE2=Stolen Moments
TTITLE3=Sweet Sweet Poison
TTITLE4=Hurricane Alley
TTITLE5=The Jig Is Up
TTITLE6=The Crossing
TTITLE7=Hey Brando
TTITLE8=When Things Get Back To Normal
TTITLE9=Chevy Coupe
TTITLE10=Stolen Moments/Reprise
EXTD=YEAR: 1993
EXTT0=
EXTT1=
EXTT2=
EXTT3=
EXTT4=
EXTT5=
EXTT6=
EXTT7=
EXTT8=
EXTT9=
EXTT10=
PLAYORDER=
